<svg width="71" height="71" viewBox="0 0 71 71" fill="none" xmlns="http://www.w3.org/2000/svg">
<rect x="0.743011" y="0.62011" width="69.6201" height="69.6201" rx="10" fill="white"/>
<g clip-path="url(#clip0)">
<path d="M28.6446 35.4302C28.6446 39.2395 31.7437 42.3387 35.5531 42.3387C39.3624 42.3387 42.4616 39.2395 42.4616 35.4302C42.4616 33.1281 41.3365 31.0329 39.5008 29.7595V35.4302C39.5008 35.7601 39.3358 36.0683 39.0613 36.2513L36.1005 38.2252C35.7689 38.4462 35.3371 38.4462 35.0056 38.2252L32.0448 36.2513C31.7702 36.0683 31.6053 35.7602 31.6053 35.4302V29.7595C29.7697 31.0329 28.6446 33.1281 28.6446 35.4302Z" fill="#00CAEA"/>
<path d="M37.5269 52.2737V44.0911C36.8919 44.2358 36.2313 44.3125 35.5531 44.3125C34.8749 44.3125 34.2143 44.2358 33.5792 44.0911V52.2737H37.5269Z" fill="#00CAEA"/>
<path d="M51.645 31.5109L48.5515 30.7515C48.4054 30.3508 48.237 29.9496 48.0475 29.5511L49.6587 26.8657C49.8917 26.4773 49.8305 25.9803 49.5103 25.66L45.3231 21.4728C45.0029 21.1526 44.5058 21.0914 44.1174 21.3244L41.4321 22.9357C41.0336 22.7462 40.6324 22.5777 40.2316 22.4316L39.4723 19.3382C39.364 18.8969 38.9683 18.5866 38.5139 18.5866H32.5923C32.1378 18.5866 31.7422 18.8969 31.6339 19.3382L30.8746 22.4316C30.4738 22.5777 30.0726 22.7462 29.6741 22.9357L26.9887 21.3244C26.6005 21.0914 26.1033 21.1526 25.7831 21.4728L21.5959 25.66C21.2756 25.9803 21.2145 26.4773 21.4474 26.8657L23.0586 29.5511C22.8691 29.9496 22.7008 30.3508 22.5546 30.7515L19.4611 31.5109C19.0199 31.6192 18.7095 32.0149 18.7095 32.4694V38.391C18.7095 38.8454 19.0199 39.2411 19.4611 39.3495L22.5546 40.1088C22.7008 40.5096 22.8691 40.9108 23.0586 41.3092L21.4474 43.9947C21.2145 44.383 21.2756 44.8801 21.5959 45.2003L25.7831 49.3875C26.1033 49.7077 26.6004 49.7689 26.9887 49.5359L29.6741 47.9247C30.0726 48.1142 30.4738 48.2826 30.8746 48.4287L31.6054 51.4061V43.3854C28.6832 41.9294 26.6707 38.9106 26.6707 35.4302C26.6707 33.6295 27.2091 31.8941 28.2274 30.4116C29.2209 28.9656 30.6019 27.8537 32.221 27.1964C32.5252 27.0728 32.8711 27.1087 33.1435 27.2922C33.4159 27.4755 33.5792 27.7825 33.5792 28.1108V34.902L35.5531 36.2179L37.5269 34.902V28.1108C37.5269 27.7824 37.6902 27.4755 37.9627 27.2921C38.2351 27.1087 38.5809 27.0728 38.8851 27.1963C40.5043 27.8537 41.8853 28.9655 42.8787 30.4116C43.8971 31.8941 44.4354 33.6295 44.4354 35.4302C44.4354 38.9106 42.423 41.9294 39.5008 43.3854V51.4061L40.2316 48.4287C40.6324 48.2825 41.0336 48.1141 41.4321 47.9246L44.1174 49.5359C44.5057 49.7689 45.0028 49.7077 45.3231 49.3874L49.5103 45.2002C49.8305 44.88 49.8917 44.3829 49.6587 43.9946L48.0475 41.3092C48.237 40.9107 48.4054 40.5095 48.5515 40.1087L51.645 39.3494C52.0863 39.2411 52.3967 38.8454 52.3967 38.391V32.4694C52.3967 32.0149 52.0863 31.6192 51.645 31.5109Z" fill="#00CAEA"/>
</g>
<defs>
<clipPath id="clip0">
<rect width="33.6871" height="33.6871" fill="white" transform="translate(18.7095 18.5866)"/>
</clipPath>
</defs>
</svg>
