<svg width="140" height="140" viewBox="0 0 140 140" fill="none" xmlns="http://www.w3.org/2000/svg">
<g opacity="0.07" clip-path="url(#clip0)">
<path d="M41.065 69.6201C41.065 85.3654 53.8748 98.1752 69.6201 98.1752C85.3654 98.1752 98.1752 85.3654 98.1752 69.6201C98.1752 60.105 93.5248 51.4449 85.9373 46.1812V69.6201C85.9373 70.9839 85.2555 72.2578 84.1207 73.0143L71.8828 81.1729C70.5124 82.0864 68.7276 82.0864 67.3572 81.1729L55.1193 73.0143C53.9844 72.2578 53.3026 70.9842 53.3026 69.6201V46.1812C45.7154 51.4449 41.065 60.105 41.065 69.6201Z" fill="#00CAEA"/>
<path d="M77.7787 139.24V105.419C75.1538 106.017 72.4234 106.334 69.6201 106.334C66.8168 106.334 64.0864 106.017 61.4615 105.419V139.24H77.7787Z" fill="#00CAEA"/>
<path d="M136.133 53.4204L123.347 50.2818C122.743 48.6253 122.047 46.9669 121.264 45.32L127.923 34.2202C128.886 32.6151 128.633 30.5605 127.31 29.2369L110.003 11.9298C108.679 10.6062 106.625 10.3533 105.019 11.3163L93.92 17.9761C92.2728 17.1929 90.6146 16.4967 88.9579 15.8927L85.8196 3.1068C85.3719 1.28281 83.7364 0 81.858 0H57.3822C55.5038 0 53.8683 1.28281 53.4207 3.1068L50.2823 15.8927C48.6256 16.4967 46.9675 17.1929 45.3202 17.9761L34.2207 11.3163C32.6159 10.3533 30.5611 10.6062 29.2375 11.9298L11.9303 29.2369C10.6067 30.5605 10.3538 32.6151 11.3168 34.2202L17.9764 45.32C17.1932 46.9669 16.4972 48.6253 15.8932 50.2818L3.1068 53.4204C1.2828 53.8683 0 55.5038 0 57.3822V81.858C0 83.7364 1.2828 85.3719 3.1068 85.8198L15.8932 88.9585C16.4972 90.6149 17.1932 92.2733 17.9764 93.9203L11.3168 105.02C10.3538 106.625 10.6067 108.68 11.9303 110.003L29.2375 127.31C30.5611 128.634 32.6157 128.887 34.2207 127.924L45.3202 121.264C46.9675 122.047 48.6256 122.744 50.2823 123.348L53.3029 135.654V102.502C41.2246 96.4837 32.9064 84.0059 32.9064 69.6201C32.9064 62.1773 35.1315 55.0042 39.3408 48.8769C43.447 42.8999 49.1551 38.3041 55.8476 35.587C57.1051 35.0763 58.5347 35.2248 59.6604 35.983C60.7865 36.7409 61.4615 38.0096 61.4615 39.3669V67.4371L69.6201 72.8762L77.7787 67.4371V39.3666C77.7787 38.0093 78.4537 36.7409 79.5799 35.9827C80.7057 35.2248 82.1351 35.0763 83.3927 35.5868C90.0852 38.3038 95.7935 42.8996 99.8994 48.8766C104.109 55.0042 106.334 62.1773 106.334 69.6201C106.334 84.0059 98.0156 96.4837 85.9373 102.502V135.654L88.9579 123.347C90.6146 122.743 92.2728 122.047 93.92 121.264L105.019 127.924C106.624 128.887 108.679 128.634 110.003 127.31L127.31 110.003C128.633 108.679 128.886 106.625 127.923 105.02L121.264 93.92C122.047 92.273 122.743 90.6147 123.347 88.9582L136.133 85.8196C137.957 85.3719 139.24 83.7364 139.24 81.858V57.3822C139.24 55.5038 137.957 53.8683 136.133 53.4204Z" fill="#00CAEA"/>
</g>
<defs>
<clipPath id="clip0">
<rect width="139.24" height="139.24" fill="white"/>
</clipPath>
</defs>
</svg>
