<svg width="8" height="4" viewBox="0 0 8 4" fill="none" xmlns="http://www.w3.org/2000/svg">
<g clip-path="url(#clip0)">
<path d="M4.21952 3.82656L7.90953 0.560135C8.03036 0.453114 8.03016 0.279845 7.90891 0.173004C7.78767 0.0662454 7.59128 0.0665212 7.47036 0.173556L3.99997 3.24556L0.529599 0.173445C0.408661 0.0664243 0.212396 0.0661484 0.0911455 0.172893C0.030364 0.226452 -2.67118e-05 0.296617 -2.67148e-05 0.366783C-2.67179e-05 0.436769 0.0301609 0.506659 0.0905204 0.560121L3.78044 3.82656C3.83853 3.87811 3.9176 3.90703 3.99997 3.90703C4.08235 3.90703 4.16132 3.87802 4.21952 3.82656Z" fill="white"/>
</g>
<defs>
<clipPath id="clip0">
<rect width="4" height="8" fill="white" transform="translate(8) rotate(90)"/>
</clipPath>
</defs>
</svg>
