<svg width="24" height="24" viewBox="0 0 24 24" fill="none" xmlns="http://www.w3.org/2000/svg">
<path d="M17 1H7C3.68629 1 1 3.68629 1 7V17C1 20.3137 3.68629 23 7 23H17C20.3137 23 23 20.3137 23 17V7C23 3.68629 20.3137 1 17 1Z" stroke="#150E56"/>
<path d="M16.5 12H7.5C7.36739 12 7.24021 12.0527 7.14645 12.1464C7.05268 12.2402 7 12.3674 7 12.5C7 12.6326 7.05268 12.7598 7.14645 12.8536C7.24021 12.9473 7.36739 13 7.5 13H16.5C16.6326 13 16.7598 12.9473 16.8536 12.8536C16.9473 12.7598 17 12.6326 17 12.5C17 12.3674 16.9473 12.2402 16.8536 12.1464C16.7598 12.0527 16.6326 12 16.5 12Z" fill="#150E56" stroke="#150E56" stroke-width="0.7"/>
</svg>
