<svg width="14" height="14" viewBox="0 0 14 14" fill="none" xmlns="http://www.w3.org/2000/svg">
<path d="M12.4688 2.1875H1.53125C0.68693 2.1875 0 2.87443 0 3.71875V10.2812C0 11.1256 0.68693 11.8125 1.53125 11.8125H12.4688C13.3131 11.8125 14 11.1256 14 10.2812V3.71875C14 2.87443 13.3131 2.1875 12.4688 2.1875ZM1.53125 3.0625H12.4688C12.8306 3.0625 13.125 3.35691 13.125 3.71875V4.59375H0.875V3.71875C0.875 3.35691 1.16941 3.0625 1.53125 3.0625ZM12.4688 10.9375H1.53125C1.16941 10.9375 0.875 10.6431 0.875 10.2812V5.46875H13.125V10.2812C13.125 10.6431 12.8306 10.9375 12.4688 10.9375Z" fill="#0F71BA"/>
<path d="M3.0625 9.625H2.625C2.38339 9.625 2.1875 9.42911 2.1875 9.1875V8.75C2.1875 8.50839 2.38339 8.3125 2.625 8.3125H3.0625C3.30411 8.3125 3.5 8.50839 3.5 8.75V9.1875C3.5 9.42911 3.30411 9.625 3.0625 9.625Z" fill="#0F71BA"/>
</svg>
