<svg width="267" height="164" viewBox="0 0 267 164" fill="none" xmlns="http://www.w3.org/2000/svg">
<path d="M253.31 162.913L13.8884 163.205C10.4641 163.21 7.17829 161.853 4.7539 159.435C2.32951 157.017 0.965097 153.735 0.960801 150.311L0.794443 14.013C0.790311 10.5889 2.14664 7.30342 4.56507 4.87926C6.98349 2.45509 10.2659 1.09083 13.6903 1.08657L253.112 0.794397C254.807 0.792331 256.487 1.12423 258.054 1.77115C259.622 2.41806 261.046 3.36732 262.246 4.56473C263.447 5.76214 264.4 7.18425 265.05 8.74986C265.701 10.3155 266.037 11.9939 266.039 13.6894L266.206 149.987C266.208 151.682 265.876 153.362 265.229 154.929C264.582 156.496 263.633 157.92 262.435 159.121C261.237 160.321 259.815 161.274 258.25 161.924C256.684 162.575 255.005 162.911 253.31 162.913Z" fill="#3B525E" stroke="#263238" stroke-linecap="round" stroke-linejoin="round"/>
<path d="M219.658 0.835358C204.828 13.0146 186.841 24.1765 166.882 29.1615C112.036 42.8609 83.8516 22.1472 23.5513 41.5126C15.7523 44.0257 8.15906 47.1374 0.839355 50.8198L0.910697 109.255C15.3781 93.5303 33.1232 81.1751 52.8916 73.0627C105.337 51.5761 131.942 67.5973 179.918 51.4825C208.383 41.9214 231.068 18.375 244.812 0.803741L219.658 0.835358Z" fill="#BFEEF5" stroke="#263238" stroke-linecap="round" stroke-linejoin="round"/>
<path d="M0.820072 35.1685C2.89263 34.2014 4.99888 33.2554 7.18346 32.3608C59.6285 10.8742 86.2335 26.8954 134.21 10.7809C141.503 8.28328 148.492 4.97351 155.045 0.913971L15.1601 1.08492C11.3459 1.08964 7.68986 2.60919 4.99615 5.30929C2.30245 8.0094 0.791759 11.6689 0.796397 15.4827L0.820072 35.1685Z" fill="#BFEEF5" stroke="#263238" stroke-linecap="round" stroke-linejoin="round"/>
<path d="M29.6576 40.5917L48.2828 40.569C49.576 40.5674 50.8168 41.0796 51.7323 41.9928C52.6478 42.906 53.1631 44.1455 53.1646 45.4385L53.1862 63.1162C53.1877 64.4093 52.6755 65.6501 51.7622 66.5655C50.8489 67.481 49.6093 67.9962 48.3161 67.9978L29.691 68.0205C28.3979 68.022 27.157 67.5099 26.2415 66.5967C25.326 65.6834 24.8108 64.444 24.8092 63.1509L24.7877 45.4731C24.7861 44.18 25.2983 42.9393 26.2116 42.0239C27.1249 41.1084 28.3644 40.5933 29.6576 40.5917Z" fill="white" stroke="#263238" stroke-linecap="round" stroke-linejoin="round"/>
<path d="M36.9681 50.0465L40.9938 50.0415C41.3071 50.041 41.6174 50.1023 41.9071 50.2218C42.1967 50.3413 42.4599 50.5167 42.6817 50.738C42.9036 50.9593 43.0796 51.2221 43.1998 51.5114C43.32 51.8007 43.382 52.1109 43.3823 52.4242L43.387 56.1565C43.3878 56.7889 43.1373 57.3957 42.6907 57.8435C42.2441 58.2912 41.6378 58.5432 41.0054 58.544L36.9788 58.549C36.6657 58.5494 36.3555 58.4881 36.066 58.3687C35.7766 58.2492 35.5135 58.0739 35.2917 57.8528C35.07 57.6316 34.8941 57.369 34.7739 57.0798C34.6536 56.7907 34.5916 56.4807 34.5912 56.1676L34.5865 52.4343C34.5861 52.1211 34.6474 51.811 34.7668 51.5215C34.8863 51.232 35.0616 50.9689 35.2827 50.7472C35.5039 50.5255 35.7666 50.3495 36.0557 50.2293C36.3449 50.109 36.6549 50.0469 36.9681 50.0465Z" fill="white" stroke="#263238" stroke-linecap="round" stroke-linejoin="round"/>
<path d="M24.7852 43.6715L33.0989 43.6615C33.4841 43.661 33.8656 43.7364 34.2217 43.8833C34.5778 44.0303 34.9014 44.2459 35.1741 44.5179C35.4468 44.79 35.6633 45.113 35.8111 45.4687C35.9589 45.8244 36.0352 46.2057 36.0357 46.5909L36.04 50.0474" stroke="#263238" stroke-linecap="round" stroke-linejoin="round"/>
<path d="M53.1619 43.6368L44.9506 43.6469C44.1728 43.6478 43.4271 43.9576 42.8777 44.5082C42.3283 45.0588 42.0202 45.8051 42.021 46.5828L42.0251 50.0399" stroke="#263238" stroke-linecap="round" stroke-linejoin="round"/>
<path d="M24.8115 65.1888L33.1254 65.1784C33.9033 65.1774 34.649 64.8675 35.1984 64.3169C35.7477 63.7662 36.0559 63.0199 36.0551 62.2421L36.0516 58.7847" stroke="#263238" stroke-linecap="round" stroke-linejoin="round"/>
<path d="M53.1885 65.1538L44.9772 65.164C44.592 65.1645 44.2105 65.0891 43.8544 64.9421C43.4984 64.7952 43.1747 64.5795 42.902 64.3075C42.6293 64.0355 42.4129 63.7124 42.265 63.3568C42.1172 63.0011 42.0409 62.6198 42.0404 62.2346L42.0361 58.7781" stroke="#263238" stroke-linecap="round" stroke-linejoin="round"/>
<path d="M24.8501 54.9762L34.5897 54.9641" stroke="#263238" stroke-linecap="round" stroke-linejoin="round"/>
<path d="M43.146 54.9539L52.8855 54.9418" stroke="#263238" stroke-linecap="round" stroke-linejoin="round"/>
<path d="M224.414 136.14C224.418 138.765 223.642 141.332 222.186 143.516C220.731 145.701 218.66 147.404 216.235 148.412C213.811 149.419 211.143 149.686 208.567 149.177C205.992 148.668 203.625 147.406 201.767 145.553C199.908 143.699 198.641 141.335 198.126 138.761C197.611 136.187 197.87 133.518 198.872 131.092C199.874 128.666 201.572 126.591 203.753 125.13C205.934 123.669 208.5 122.887 211.125 122.884C212.868 122.882 214.594 123.223 216.206 123.888C217.817 124.553 219.281 125.529 220.515 126.76C221.749 127.991 222.729 129.453 223.398 131.062C224.067 132.671 224.412 134.397 224.414 136.14Z" fill="white" stroke="#263238" stroke-linecap="round" stroke-linejoin="round"/>
<path d="M242.446 136.118C242.449 138.743 241.674 141.31 240.218 143.494C238.762 145.678 236.691 147.382 234.267 148.39C231.843 149.397 229.175 149.663 226.599 149.154C224.024 148.645 221.657 147.384 219.799 145.53C217.94 143.676 216.673 141.313 216.158 138.739C215.642 136.165 215.902 133.496 216.904 131.07C217.905 128.644 219.604 126.569 221.785 125.108C223.966 123.647 226.531 122.865 229.156 122.862C232.677 122.858 236.054 124.252 238.547 126.738C241.039 129.224 242.441 132.598 242.446 136.118Z" fill="#BFEEF5" stroke="#263238" stroke-linecap="round" stroke-linejoin="round"/>
</svg>
