<svg width="12" height="12" viewBox="0 0 12 12" fill="none" xmlns="http://www.w3.org/2000/svg">
<g clip-path="url(#clip0)">
<path d="M4.62497 4.00003H0.874969C0.392487 4.00003 0 3.60754 0 3.12497V0.874969C0 0.392487 0.392487 0 0.874969 0H4.62497C5.10754 0 5.50003 0.392487 5.50003 0.874969V3.12497C5.50003 3.60754 5.10754 4.00003 4.62497 4.00003ZM0.874969 0.75C0.80603 0.75 0.75 0.80603 0.75 0.874969V3.12497C0.75 3.194 0.80603 3.25003 0.874969 3.25003H4.62497C4.694 3.25003 4.75003 3.194 4.75003 3.12497V0.874969C4.75003 0.80603 4.694 0.75 4.62497 0.75H0.874969Z" fill="#0F71BA"/>
<path d="M4.62497 12H0.874969C0.392487 12 0 11.6075 0 11.125V5.87503C0 5.39246 0.392487 4.99997 0.874969 4.99997H4.62497C5.10754 4.99997 5.50003 5.39246 5.50003 5.87503V11.125C5.50003 11.6075 5.10754 12 4.62497 12ZM0.874969 5.74997C0.80603 5.74997 0.75 5.806 0.75 5.87503V11.125C0.75 11.194 0.80603 11.25 0.874969 11.25H4.62497C4.694 11.25 4.75003 11.194 4.75003 11.125V5.87503C4.75003 5.806 4.694 5.74997 4.62497 5.74997H0.874969Z" fill="#0F71BA"/>
<path d="M11.1252 12H7.37518C6.89261 12 6.50012 11.6075 6.50012 11.125V8.87503C6.50012 8.39246 6.89261 7.99997 7.37518 7.99997H11.1252C11.6077 7.99997 12.0001 8.39246 12.0001 8.87503V11.125C12.0001 11.6075 11.6077 12 11.1252 12ZM7.37518 8.74997C7.30615 8.74997 7.25012 8.806 7.25012 8.87503V11.125C7.25012 11.194 7.30615 11.25 7.37518 11.25H11.1252C11.1941 11.25 11.2501 11.194 11.2501 11.125V8.87503C11.2501 8.806 11.1941 8.74997 11.1252 8.74997H7.37518Z" fill="#0F71BA"/>
<path d="M11.1252 7.00003H7.37518C6.89261 7.00003 6.50012 6.60754 6.50012 6.12497V0.874969C6.50012 0.392487 6.89261 0 7.37518 0H11.1252C11.6077 0 12.0001 0.392487 12.0001 0.874969V6.12497C12.0001 6.60754 11.6077 7.00003 11.1252 7.00003ZM7.37518 0.75C7.30615 0.75 7.25012 0.80603 7.25012 0.874969V6.12497C7.25012 6.194 7.30615 6.25003 7.37518 6.25003H11.1252C11.1941 6.25003 11.2501 6.194 11.2501 6.12497V0.874969C11.2501 0.80603 11.1941 0.75 11.1252 0.75H7.37518Z" fill="#0F71BA"/>
</g>
<defs>
<clipPath id="clip0">
<rect width="12" height="12" fill="white"/>
</clipPath>
</defs>
</svg>
