<svg width="14" height="14" viewBox="0 0 14 14" fill="none" xmlns="http://www.w3.org/2000/svg">
<circle cx="7" cy="7" r="7" fill="black"/>
<path d="M6.82 10.3C6.76667 10.3 6.72133 10.2813 6.684 10.244C6.64667 10.212 6.628 10.1667 6.628 10.108V9.548C6.244 9.51067 5.91333 9.42 5.636 9.276C5.364 9.12667 5.156 8.94533 5.012 8.732C4.87333 8.51333 4.79867 8.28133 4.788 8.036C4.788 7.988 4.804 7.948 4.836 7.916C4.87333 7.884 4.916 7.868 4.964 7.868H5.676C5.73467 7.868 5.78 7.88133 5.812 7.908C5.84933 7.92933 5.884 7.96667 5.916 8.02C5.97467 8.20133 6.09733 8.35333 6.284 8.476C6.476 8.59867 6.74 8.66 7.076 8.66C7.44933 8.66 7.732 8.59867 7.924 8.476C8.116 8.348 8.212 8.172 8.212 7.948C8.212 7.79867 8.164 7.676 8.068 7.58C7.972 7.484 7.82533 7.40133 7.628 7.332C7.43067 7.25733 7.14 7.172 6.756 7.076C6.12667 6.92667 5.66533 6.72933 5.372 6.484C5.084 6.23333 4.94 5.87867 4.94 5.42C4.94 5.004 5.08933 4.65467 5.388 4.372C5.692 4.084 6.10533 3.908 6.628 3.844V3.292C6.628 3.23333 6.64667 3.188 6.684 3.156C6.72133 3.11867 6.76667 3.1 6.82 3.1H7.308C7.36133 3.1 7.40667 3.11867 7.444 3.156C7.48133 3.19333 7.5 3.23867 7.5 3.292V3.86C7.84667 3.908 8.14267 4.012 8.388 4.172C8.63867 4.32667 8.828 4.508 8.956 4.716C9.08933 4.924 9.16133 5.12667 9.172 5.324C9.172 5.372 9.156 5.412 9.124 5.444C9.092 5.476 9.052 5.492 9.004 5.492H8.26C8.14267 5.492 8.06267 5.44133 8.02 5.34C7.99333 5.16933 7.88933 5.028 7.708 4.916C7.52667 4.79867 7.3 4.74 7.028 4.74C6.73467 4.74 6.50267 4.796 6.332 4.908C6.16133 5.02 6.076 5.18267 6.076 5.396C6.076 5.54533 6.11867 5.668 6.204 5.764C6.28933 5.86 6.42267 5.94533 6.604 6.02C6.79067 6.09467 7.05733 6.17733 7.404 6.268C7.87333 6.37467 8.24667 6.49467 8.524 6.628C8.80667 6.76133 9.01467 6.92933 9.148 7.132C9.28133 7.33467 9.348 7.59333 9.348 7.908C9.348 8.36667 9.18267 8.74267 8.852 9.036C8.52133 9.324 8.07067 9.49733 7.5 9.556V10.108C7.5 10.1613 7.48133 10.2067 7.444 10.244C7.40667 10.2813 7.36133 10.3 7.308 10.3H6.82Z" fill="white"/>
</svg>
