<svg width="33" height="33" viewBox="0 0 33 33" fill="none" xmlns="http://www.w3.org/2000/svg">
<path d="M16.5006 17.5693C15.5171 17.5693 14.7163 18.3689 14.7163 19.3518C14.7163 20.3347 15.5171 21.1349 16.5006 21.1349C17.4835 21.1349 18.2843 20.3347 18.2843 19.3518C18.2843 18.3689 17.4835 17.5693 16.5006 17.5693Z" fill="#0F71BA"/>
<path d="M20.8312 20.1621C22.8929 17.7662 26.0191 16.5318 30.1123 16.4748C30.0853 15.1088 29.8573 13.7922 29.4549 12.5531C25.0432 15.5048 20.7026 16.5036 16.8613 16.5036C10.0784 16.5036 4.85534 13.4097 3.54399 12.556C3.15802 13.747 2.93887 15.0125 2.89709 16.3215C7.13725 16.3221 10.3569 17.5671 12.4672 20.0193C15.7979 23.8911 15.2515 29.415 15.1387 30.3004C15.587 30.3445 16.0405 30.3685 16.5006 30.3685C17.0546 30.3685 17.6022 30.331 18.1404 30.2663C18.0011 28.9895 17.6709 23.8335 20.8312 20.1621ZM28.5754 14.382L28.801 14.9067L24.4898 16.7604L24.2636 16.2368L28.5754 14.382ZM8.80935 16.7603L4.49807 14.9066L4.72307 14.382L9.0337 16.2368L8.80935 16.7603ZM14.1464 19.3518C14.1464 18.054 15.2016 16.9982 16.5006 16.9982C17.7984 16.9982 18.8548 18.054 18.8548 19.3518C18.8548 20.6502 17.7984 21.706 16.5006 21.706C15.2016 21.706 14.1464 20.6502 14.1464 19.3518Z" fill="#0F71BA"/>
<path d="M16.5 0C7.40221 0 0 7.40163 0 16.4994C0 25.5978 7.40221 32.9994 16.5 32.9994C25.5978 32.9994 33 25.5972 33 16.4994C33 7.40163 25.5978 0 16.5 0ZM16.5 30.939C8.67597 30.939 2.30959 24.5743 2.30959 16.7497C2.30959 8.92512 8.67597 2.55924 16.5 2.55924C24.3234 2.55924 30.6893 8.92447 30.6893 16.7491C30.6893 24.5737 24.3234 30.939 16.5 30.939Z" fill="#0F71BA"/>
</svg>
