<svg width="71" height="71" viewBox="0 0 71 71" fill="none" xmlns="http://www.w3.org/2000/svg">
<rect x="0.620117" y="0.62011" width="69.6201" height="69.6201" rx="10" fill="white"/>
<g clip-path="url(#clip0)">
<path d="M35.4308 36.5226C34.4268 36.5226 33.6094 37.3389 33.6094 38.3423C33.6094 39.3456 34.4268 40.1625 35.4308 40.1625C36.4342 40.1625 37.2516 39.3456 37.2516 38.3423C37.2516 37.3389 36.4342 36.5226 35.4308 36.5226Z" fill="#0F71BA"/>
<path d="M39.8516 39.1694C41.9561 36.7236 45.1474 35.4635 49.3259 35.4053C49.2984 34.0109 49.0656 32.6668 48.6548 31.402C44.1513 34.4151 39.7203 35.4348 35.799 35.4348C28.8749 35.4348 23.543 32.2764 22.2044 31.405C21.8104 32.6207 21.5867 33.9126 21.544 35.2488C25.8725 35.2494 29.1592 36.5203 31.3134 39.0237C34.7134 42.976 34.1556 48.615 34.0405 49.5188C34.4981 49.5638 34.9611 49.5884 35.4308 49.5884C35.9963 49.5884 36.5553 49.55 37.1047 49.4841C36.9625 48.1807 36.6255 42.9172 39.8516 39.1694ZM47.757 33.269L47.9873 33.8046L43.5863 35.6968L43.3554 35.1624L47.757 33.269ZM27.5794 35.6968L23.1783 33.8045L23.408 33.2689L27.8084 35.1623L27.5794 35.6968ZM33.0276 38.3423C33.0276 37.0174 34.1047 35.9397 35.4308 35.9397C36.7556 35.9397 37.834 37.0174 37.834 38.3423C37.834 39.6677 36.7556 40.7455 35.4308 40.7455C34.1047 40.7455 33.0276 39.6677 33.0276 38.3423Z" fill="#0F71BA"/>
<path d="M35.4302 18.5875C26.1429 18.5875 18.5866 26.1432 18.5866 35.4304C18.5866 44.7183 26.1429 52.274 35.4302 52.274C44.7174 52.274 52.2738 44.7177 52.2738 35.4304C52.2738 26.1432 44.7174 18.5875 35.4302 18.5875ZM35.4302 50.1707C27.4432 50.1707 20.9443 43.6735 20.9443 35.686C20.9443 27.6984 27.4432 21.2 35.4302 21.2C43.4165 21.2 49.9149 27.6978 49.9149 35.6853C49.9149 43.6728 43.4165 50.1707 35.4302 50.1707Z" fill="#0F71BA"/>
</g>
<defs>
<clipPath id="clip0">
<rect width="33.6871" height="33.6871" fill="white" transform="translate(18.5866 18.5866)"/>
</clipPath>
</defs>
</svg>
