<svg width="136" height="136" viewBox="0 0 136 136" fill="none" xmlns="http://www.w3.org/2000/svg">
<g opacity="0.05" clip-path="url(#clip0)">
<path d="M67.9379 72.3419C63.8885 72.3419 60.5915 75.6342 60.5915 79.6812C60.5915 83.7282 63.8885 87.0229 67.9379 87.0229C71.9849 87.0229 75.282 83.7282 75.282 79.6812C75.282 75.6342 71.9849 72.3419 67.9379 72.3419Z" fill="#0F71BA"/>
<path d="M85.769 83.0173C94.2573 73.1526 107.129 68.0703 123.982 67.8355C123.871 62.2113 122.932 56.7903 121.275 51.6886C103.111 63.8418 85.2393 67.9542 69.4237 67.9542C41.4962 67.9542 19.9911 55.2157 14.5919 51.7008C13.0027 56.6043 12.1004 61.8149 11.9284 67.2043C29.3865 67.2067 42.6428 72.3327 51.3317 82.4295C65.0452 98.3708 62.7953 121.114 62.3311 124.76C64.1768 124.941 66.0442 125.041 67.9384 125.041C70.2194 125.041 72.474 124.886 74.6899 124.62C74.1164 119.363 72.757 98.1336 85.769 83.0173ZM117.654 59.219L118.583 61.3792L100.832 69.0113L99.9012 66.8558L117.654 59.219ZM36.271 69.011L18.5201 61.3789L19.4465 59.2187L37.1948 66.8555L36.271 69.011ZM58.2454 79.6812C58.2454 74.3376 62.59 69.9907 67.9384 69.9907C73.282 69.9907 77.6313 74.3376 77.6313 79.6812C77.6313 85.0272 73.282 89.3742 67.9384 89.3742C62.59 89.3742 58.2454 85.0272 58.2454 79.6812Z" fill="#0F71BA"/>
<path d="M67.9358 0.0042448C30.4772 0.0042448 0 30.4791 0 67.9376C0 105.399 30.4772 135.873 67.9358 135.873C105.394 135.873 135.872 105.396 135.872 67.9376C135.872 30.4791 105.394 0.0042448 67.9358 0.0042448ZM67.9358 127.39C35.7217 127.39 9.50933 101.185 9.50933 68.9682C9.50933 36.7518 35.7217 10.5415 67.9358 10.5415C100.147 10.5415 126.357 36.7491 126.357 68.9655C126.357 101.182 100.147 127.39 67.9358 127.39Z" fill="#0F71BA"/>
</g>
<defs>
<clipPath id="clip0">
<rect width="135.872" height="135.872" fill="white"/>
</clipPath>
</defs>
</svg>
