<svg width="14" height="14" viewBox="0 0 14 14" fill="none" xmlns="http://www.w3.org/2000/svg">
<path fill-rule="evenodd" clip-rule="evenodd" d="M2.20176 5.54802H3.28361C3.42854 5.54836 3.56745 5.60601 3.66999 5.70843C3.77253 5.81085 3.83036 5.94969 3.83087 6.09462V11.2351C3.83036 11.3801 3.77251 11.519 3.66999 11.6215C3.56747 11.724 3.4286 11.7819 3.28361 11.7824H2.18902C1.60872 11.7822 1.05225 11.5517 0.641792 11.1415C0.231337 10.7313 0.000505917 10.1749 1.06357e-08 9.59457V7.73514C-3.7866e-05 7.35114 0.101091 6.97391 0.293242 6.64145C0.485393 6.30898 0.761764 6.03305 1.09451 5.84138C1.11021 4.46121 1.60863 3.13008 2.50324 2.07899C3.39784 1.02789 4.63216 0.323157 5.99208 0.0870793C7.352 -0.148998 8.75172 0.0984651 9.94825 0.786549C11.1448 1.47463 12.0626 2.55988 12.5425 3.85402C12.5905 3.98997 12.5834 4.13928 12.5228 4.27007C12.4622 4.40086 12.3527 4.50278 12.218 4.55403C12.1509 4.57928 12.0794 4.59094 12.0078 4.58836C11.9361 4.58578 11.8657 4.56901 11.8006 4.539C11.7355 4.50898 11.677 4.46635 11.6285 4.41354C11.58 4.36074 11.5424 4.29881 11.518 4.23139C11.1363 3.20097 10.4137 2.33212 9.47012 1.76908C8.52651 1.20605 7.41866 0.982715 6.33061 1.13619C5.24256 1.28966 4.23975 1.8107 3.48869 2.61277C2.73762 3.41484 2.28351 4.44968 2.20176 5.54546V5.54802ZM2.18902 10.6885H2.73636V6.64125H2.18902C1.89885 6.64125 1.62058 6.75648 1.41533 6.9616C1.21008 7.16673 1.09468 7.44496 1.09451 7.73514V9.59457C1.09485 9.88463 1.21034 10.1627 1.41556 10.3677C1.62079 10.5727 1.89896 10.6878 2.18902 10.6878V10.6885Z" fill="#0F71BA"/>
<path fill-rule="evenodd" clip-rule="evenodd" d="M10.7162 5.54753H11.8108C12.3911 5.54753 12.9475 5.77789 13.358 6.188C13.7684 6.59812 13.9993 7.15441 13.9998 7.73465V9.59408C13.9993 10.1744 13.7685 10.7308 13.358 11.141C12.9476 11.5512 12.3911 11.7817 11.8108 11.7819H11.2635V11.8086C11.2636 12.0242 11.2212 12.2377 11.1387 12.4369C11.0562 12.6361 10.9353 12.8171 10.7828 12.9695C10.6303 13.1219 10.4493 13.2428 10.2501 13.3252C10.0508 13.4076 9.8373 13.4499 9.62171 13.4498H7.95446V13.4319C7.83708 13.6442 7.6525 13.8114 7.42973 13.9073C7.20697 14.0031 6.95868 14.0223 6.72385 13.9617C6.48903 13.9011 6.281 13.7641 6.13248 13.5724C5.98395 13.3807 5.90332 13.145 5.90332 12.9025C5.90332 12.66 5.98395 12.4243 6.13248 12.2326C6.281 12.0409 6.48903 11.904 6.72385 11.8433C6.95868 11.7827 7.20697 11.8019 7.42973 11.8978C7.6525 11.9936 7.83708 12.1608 7.95446 12.373V12.3559H9.62171C9.69365 12.3561 9.76493 12.3422 9.83144 12.3147C9.89795 12.2873 9.95838 12.247 10.0093 12.1962C10.0601 12.1453 10.1004 12.0849 10.1278 12.0184C10.1552 11.9518 10.1692 11.8806 10.169 11.8086V6.09413C10.1695 5.9492 10.2273 5.81036 10.3298 5.70794C10.4324 5.60552 10.5713 5.54787 10.7162 5.54753ZM11.8108 10.688C12.101 10.688 12.3793 10.5728 12.5845 10.3677C12.7897 10.1625 12.9051 9.88425 12.9053 9.59408V7.73465C12.9051 7.44447 12.7897 7.16624 12.5845 6.96111C12.3793 6.75599 12.101 6.64076 11.8108 6.64076H11.2635V10.688H11.8108Z" fill="#0F71BA"/>
</svg>
