<svg width="12" height="12" viewBox="0 0 12 12" fill="none" xmlns="http://www.w3.org/2000/svg">
<path fill-rule="evenodd" clip-rule="evenodd" d="M11.4151 9.91926C11.4754 9.90666 11.5375 9.90606 11.598 9.9175C11.6585 9.92894 11.7161 9.95219 11.7676 9.98593C11.8191 10.0197 11.8634 10.0632 11.898 10.1141C11.9326 10.165 11.9568 10.2222 11.9693 10.2825C12.013 10.4898 12.01 10.7041 11.9604 10.91C11.9107 11.116 11.8158 11.3082 11.6824 11.4728C11.549 11.6373 11.3806 11.77 11.1895 11.8612C10.9983 11.9524 10.7892 11.9999 10.5774 12H1.42264C1.21082 11.9999 1.00172 11.9524 0.810544 11.8612C0.619372 11.77 0.450968 11.6373 0.317602 11.4728C0.184237 11.3082 0.0892563 11.116 0.0396214 10.91C-0.0100134 10.7041 -0.0130443 10.4898 0.0306994 10.2825C0.249796 9.23564 0.740509 8.26484 1.4536 7.46764C2.16668 6.67045 3.07703 6.07492 4.09315 5.74089C3.55676 5.34021 3.16016 4.78083 2.95962 4.14208C2.75908 3.50333 2.76475 2.81765 2.97587 2.18232C3.18699 1.54698 3.59283 0.994249 4.1358 0.602532C4.67876 0.210816 5.3313 0 6.00083 0C6.67036 0 7.32287 0.210816 7.86584 0.602532C8.4088 0.994249 8.81464 1.54698 9.02577 2.18232C9.23689 2.81765 9.24259 3.50333 9.04204 4.14208C8.8415 4.78083 8.4449 5.34021 7.90851 5.74089C9.19979 6.16607 10.3118 7.0108 11.0677 8.1407C11.102 8.1918 11.1258 8.24914 11.138 8.30947C11.1501 8.3698 11.1502 8.43193 11.1383 8.4923C11.1264 8.55266 11.1027 8.6101 11.0686 8.66132C11.0345 8.71254 10.9906 8.75654 10.9395 8.79082C10.8884 8.82509 10.8311 8.84896 10.7707 8.86107C10.7104 8.87318 10.6483 8.87327 10.5879 8.86137C10.5275 8.84947 10.4701 8.8258 10.4189 8.7917C10.3676 8.7576 10.3236 8.71376 10.2894 8.66265C9.82974 7.97494 9.21146 7.40782 8.48668 7.00915C7.7619 6.61048 6.95187 6.39192 6.12491 6.37193C6.08346 6.37193 6.042 6.37193 6 6.37193C5.958 6.37193 5.91708 6.37193 5.87562 6.37193C4.71323 6.4035 3.59527 6.82511 2.70151 7.56894C1.80776 8.31277 1.19015 9.33558 0.948103 10.4729C0.933109 10.5443 0.934259 10.6182 0.951432 10.6891C0.968605 10.7601 1.00137 10.8263 1.04738 10.883C1.09246 10.9391 1.14965 10.9842 1.21463 11.0151C1.27961 11.046 1.35069 11.0618 1.42264 11.0613H10.5774C10.6493 11.0619 10.7205 11.0461 10.7855 11.0153C10.8505 10.9844 10.9076 10.9392 10.9526 10.883C10.9986 10.8263 11.0314 10.7601 11.0486 10.6891C11.0657 10.6182 11.0669 10.5443 11.0519 10.4729C11.0267 10.3513 11.0509 10.2247 11.119 10.1209C11.1871 10.0171 11.2936 9.94458 11.4151 9.91926ZM6 0.938569C5.41263 0.937854 4.84828 1.16686 4.42749 1.57664C4.0067 1.98642 3.76283 2.54449 3.74802 3.13164C3.73321 3.71879 3.9486 4.28845 4.34819 4.71893C4.74778 5.1494 5.29988 5.40656 5.88654 5.43546C5.92418 5.43546 5.96236 5.43546 6 5.43546C6.03764 5.43546 6.07581 5.43546 6.11399 5.43546C6.7007 5.40656 7.25284 5.14936 7.65244 4.71883C8.05204 4.28829 8.2674 3.71857 8.25251 3.13137C8.23763 2.54417 7.99367 1.98608 7.57277 1.57634C7.15187 1.1666 6.58742 0.937708 6 0.938569Z" fill="#0F71BA"/>
</svg>
