<svg width="22" height="22" viewBox="0 0 22 22" fill="none" xmlns="http://www.w3.org/2000/svg">
<path d="M16 0H6C2.68629 0 0 2.68629 0 6V16C0 19.3137 2.68629 22 6 22H16C19.3137 22 22 19.3137 22 16V6C22 2.68629 19.3137 0 16 0Z" fill="#150E56"/>
<path d="M15.5 11H11.5V7C11.5 6.86739 11.4473 6.74021 11.3536 6.64645C11.2598 6.55268 11.1326 6.5 11 6.5C10.8674 6.5 10.7402 6.55268 10.6464 6.64645C10.5527 6.74021 10.5 6.86739 10.5 7V11H6.5C6.36739 11 6.24021 11.0527 6.14645 11.1464C6.05268 11.2402 6 11.3674 6 11.5C6 11.6326 6.05268 11.7598 6.14645 11.8536C6.24021 11.9473 6.36739 12 6.5 12H10.5V16C10.5 16.1326 10.5527 16.2598 10.6464 16.3536C10.7402 16.4473 10.8674 16.5 11 16.5C11.1326 16.5 11.2598 16.4473 11.3536 16.3536C11.4473 16.2598 11.5 16.1326 11.5 16V12H15.5C15.6326 12 15.7598 11.9473 15.8536 11.8536C15.9473 11.7598 16 11.6326 16 11.5C16 11.3674 15.9473 11.2402 15.8536 11.1464C15.7598 11.0527 15.6326 11 15.5 11Z" fill="white" stroke="white" stroke-width="0.7"/>
</svg>
