<svg width="19" height="19" viewBox="0 0 19 19" fill="none" xmlns="http://www.w3.org/2000/svg">
<g clip-path="url(#clip0)">
<path d="M18.4062 15.0417H0.59375C0.266 15.0417 0 14.7757 0 14.4479C0 14.1202 0.266 13.8542 0.59375 13.8542H18.4062C18.734 13.8542 19 14.1202 19 14.4479C19 14.7757 18.734 15.0417 18.4062 15.0417Z" fill="#0F71BA"/>
<path d="M16.823 15.0417C16.4952 15.0417 16.2292 14.7757 16.2292 14.4479V5.34375C16.2292 5.2345 16.1405 5.14583 16.0313 5.14583H2.96879C2.85954 5.14583 2.77087 5.2345 2.77087 5.34375V14.4479C2.77087 14.7757 2.50487 15.0417 2.17712 15.0417C1.84937 15.0417 1.58337 14.7757 1.58337 14.4479V5.34375C1.58337 4.57979 2.20483 3.95833 2.96879 3.95833H16.0313C16.7952 3.95833 17.4167 4.57979 17.4167 5.34375V14.4479C17.4167 14.7757 17.1507 15.0417 16.823 15.0417Z" fill="#0F71BA"/>
<line x1="6.0293" y1="7.85165" x2="13.3047" y2="7.85165" stroke="#0F71BA" stroke-linecap="round"/>
<line x1="7.36523" y1="9.81845" x2="11.9316" y2="9.81845" stroke="#0F71BA" stroke-linecap="round"/>
<line x1="5.99219" y1="11.7852" x2="13.3047" y2="11.7852" stroke="#0F71BA" stroke-linecap="round"/>
</g>
<defs>
<clipPath id="clip0">
<rect width="19" height="19" fill="white"/>
</clipPath>
</defs>
</svg>
