<svg width="24" height="25" viewBox="0 0 24 25" fill="none" xmlns="http://www.w3.org/2000/svg">
<path d="M12.2424 25C19.3071 25 24 19.9367 24 12.79C24 11.9717 23.9168 11.34 23.8009 10.71H12.244V15.0067H19.1928C18.9088 16.8317 17.0888 20.395 12.244 20.395C8.07019 20.395 4.66191 16.865 4.66191 12.5C4.66191 8.135 8.06856 4.60333 12.244 4.60333C14.6321 4.60333 16.2187 5.64333 17.1214 6.53L20.4448 3.27333C18.3048 1.22833 15.5495 0 12.2424 0C5.47807 0 0 5.59333 0 12.5C0 19.4067 5.47807 25 12.2424 25Z" fill="white"/>
</svg>
