<svg width="14" height="14" viewBox="0 0 14 14" fill="none" xmlns="http://www.w3.org/2000/svg">
<path d="M6.7854 9.38492C6.38511 9.38492 6.06104 9.71851 6.06104 10.1188C6.06104 10.5096 6.37557 10.8527 6.7854 10.8527C7.19522 10.8527 7.5193 10.5096 7.5193 10.1188C7.5193 9.71851 7.18573 9.38492 6.7854 9.38492Z" fill="#0F71BA"/>
<path d="M6.90938 3.82816C5.62266 3.82816 5.03174 4.59064 5.03174 5.10533C5.03174 5.47707 5.34625 5.64862 5.60361 5.64862C6.11827 5.64862 5.9086 4.91471 6.88078 4.91471C7.35735 4.91471 7.73861 5.12441 7.73861 5.56284C7.73861 6.07756 7.20486 6.37301 6.89032 6.63988C6.61393 6.87816 6.25173 7.26895 6.25173 8.08864C6.25173 8.58424 6.38514 8.72722 6.77594 8.72722C7.24297 8.72722 7.33827 8.51755 7.33827 8.33645C7.33827 7.84082 7.34784 7.55489 7.87204 7.14506C8.12937 6.9449 8.93954 6.29678 8.93954 5.40083C8.93954 4.50489 8.12938 3.82816 6.90938 3.82816Z" fill="#0F71BA"/>
<path d="M7 0C3.1313 0 0 3.13078 0 7V13.4531C0 13.7552 0.244836 14 0.546875 14H7C10.8687 14 14 10.8692 14 7C14 3.1313 10.8692 0 7 0ZM7 12.9062H1.09375V7C1.09375 3.73579 3.73535 1.09375 7 1.09375C10.2642 1.09375 12.9062 3.73535 12.9062 7C12.9062 10.2642 10.2647 12.9062 7 12.9062Z" fill="#0F71BA"/>
</svg>
