<svg width="11" height="11" viewBox="0 0 11 11" fill="none" xmlns="http://www.w3.org/2000/svg">
<path d="M8.02238 0H2.97759C1.33572 0 0 1.33572 0 2.97759V8.02247C0 9.66426 1.33572 11 2.97759 11H8.02247C9.66426 11 11 9.66426 11 8.02247V2.97759C11 1.33572 9.66426 0 8.02238 0V0ZM5.49999 8.50771C3.8415 8.50771 2.49227 7.15848 2.49227 5.49999C2.49227 3.8415 3.8415 2.49227 5.49999 2.49227C7.15848 2.49227 8.50771 3.8415 8.50771 5.49999C8.50771 7.15848 7.15848 8.50771 5.49999 8.50771ZM8.57963 3.20159C8.08952 3.20159 7.69089 2.80295 7.69089 2.31284C7.69089 1.82273 8.08952 1.42401 8.57963 1.42401C9.06975 1.42401 9.46846 1.82273 9.46846 2.31284C9.46846 2.80295 9.06975 3.20159 8.57963 3.20159Z" fill="#0F71BA"/>
<path d="M5.49997 3.13721C4.19715 3.13721 3.13712 4.19716 3.13712 5.50006C3.13712 6.80289 4.19715 7.86292 5.49997 7.86292C6.80288 7.86292 7.86283 6.80289 7.86283 5.50006C7.86283 4.19716 6.80288 3.13721 5.49997 3.13721Z" fill="#0F71BA"/>
<path d="M8.57963 2.06885C8.44519 2.06885 8.33575 2.17828 8.33575 2.31273C8.33575 2.44717 8.44519 2.55661 8.57963 2.55661C8.71416 2.55661 8.8236 2.44726 8.8236 2.31273C8.8236 2.1782 8.71416 2.06885 8.57963 2.06885Z" fill="#0F71BA"/>
</svg>
