<svg width="82" height="82" viewBox="0 0 82 82" fill="none" xmlns="http://www.w3.org/2000/svg">
<g clip-path="url(#clip0)">
<path d="M33.6359 41.8008H38.441V46.6059H33.6359V41.8008Z" fill="#0F71BA"/>
<path d="M4.86763 36.979H45.7022C46.5574 23.9231 59.3222 14.8701 72.0766 18.6198V15.3728C72.0766 14.0459 71.0009 12.9703 69.6741 12.9703H48.055V5.76261C48.055 4.43572 46.9794 3.36011 45.6525 3.36011H26.4242C25.0973 3.36011 24.0217 4.43572 24.0217 5.76261V12.9703H2.4025C1.07561 12.9703 0 14.0459 0 15.3728V32.8372C0.37925 35.1822 2.41724 36.979 4.86763 36.979ZM28.8267 8.16511H43.25V12.9703H28.8267V8.16511Z" fill="#0F71BA"/>
<path d="M55.8194 56.118C50.7348 53.13 46.9673 47.9722 45.9387 41.784H43.2462V49.0085C43.2462 50.3354 42.1706 51.411 40.8437 51.411H31.2335C29.9066 51.411 28.831 50.3354 28.831 49.0085V41.784H4.86763C3.09502 41.784 1.43308 41.3057 0 40.4746V71.993C0 73.3199 1.07561 74.3955 2.4025 74.3955H55.9112C55.7453 73.1309 55.8527 73.9178 55.8194 56.118Z" fill="#0F71BA"/>
<path d="M77.3864 27.2013C71.2349 21.0499 61.2261 21.0499 55.0747 27.2013C46.9772 35.2987 49.9798 49.0689 60.6246 53.0989V58.6267H71.8365V53.0989C82.4777 49.0704 85.4845 35.2996 77.3864 27.2013ZM66.2305 49.3217C66.2304 49.3217 66.2307 49.3217 66.2305 49.3217C60.1579 49.3217 55.2661 44.4319 55.2661 38.3574C55.2661 32.2844 60.156 27.3931 66.2304 27.3931C72.3032 27.3931 77.1947 32.2829 77.1947 38.3574C77.1947 44.4298 72.3049 49.3217 66.2305 49.3217Z" fill="#0F71BA"/>
<path d="M60.6244 73.0342C60.6244 76.1253 63.1394 78.6401 66.2304 78.6401C69.3216 78.6401 71.8363 76.1252 71.8363 73.0342V63.432H60.6244V73.0342Z" fill="#0F71BA"/>
</g>
<defs>
<clipPath id="clip0">
<rect width="82" height="82" fill="white"/>
</clipPath>
</defs>
</svg>
