<svg width="17" height="16" viewBox="0 0 17 16" fill="none" xmlns="http://www.w3.org/2000/svg">
<path d="M16.6087 8.02283C16.6088 9.0596 16.4048 10.0862 16.0083 11.0441C15.6118 12.0019 15.0305 12.8723 14.2977 13.6053C13.5648 14.3383 12.6948 14.9197 11.7374 15.3163C10.7799 15.7128 9.75371 15.9168 8.71744 15.9164C7.68118 15.9167 6.655 15.7128 5.69754 15.3162C4.74008 14.9196 3.87011 14.3382 3.1373 13.6052C2.40448 12.8722 1.8232 12.0019 1.42665 11.044C1.0301 10.0862 0.826055 9.05959 0.826172 8.02283C0.826055 6.98607 1.0301 5.95946 1.42665 5.00162C1.8232 4.04378 2.40448 3.17349 3.1373 2.44047C3.87011 1.70744 4.74008 1.12603 5.69754 0.72947C6.655 0.33291 7.68118 0.128962 8.71744 0.129273C9.75371 0.128923 10.7799 0.332833 11.7374 0.72938C12.6948 1.12593 13.5648 1.70734 14.2977 2.44038C15.0305 3.17341 15.6118 4.04371 16.0083 5.00157C16.4048 5.95943 16.6088 6.98606 16.6087 8.02283Z" fill="url(#paint0_linear)"/>
<path d="M12.6818 8.02283C12.6819 8.54375 12.5795 9.05959 12.3803 9.5409C12.1812 10.0222 11.8892 10.4596 11.5211 10.828C11.153 11.1964 10.716 11.4887 10.235 11.6881C9.75399 11.8875 9.23844 11.9902 8.71777 11.9902C8.19711 11.9902 7.68156 11.8875 7.20056 11.6881C6.71957 11.4887 6.28253 11.1964 5.91444 10.828C5.54635 10.4596 5.25442 10.0222 5.0553 9.5409C4.85617 9.05959 4.75375 8.54374 4.75391 8.02283C4.75375 7.50192 4.85617 6.98609 5.0553 6.50478C5.25442 6.02347 5.54635 5.58612 5.91444 5.2177C6.28253 4.84929 6.71957 4.55702 7.20056 4.3576C7.68156 4.15818 8.19711 4.05551 8.71777 4.05545C9.23844 4.05551 9.75399 4.15818 10.235 4.3576C10.716 4.55702 11.153 4.84926 11.5211 5.21768C11.8892 5.58609 12.1812 6.02345 12.3803 6.50476C12.5795 6.98607 12.6819 7.50191 12.6818 8.02283Z" fill="#0F71BA"/>
<defs>
<linearGradient id="paint0_linear" x1="3409.46" y1="2902.51" x2="3215.95" y2="3043.4" gradientUnits="userSpaceOnUse">
<stop offset="0.0426" stop-color="white"/>
<stop offset="1" stop-color="#EFEFEF"/>
</linearGradient>
</defs>
</svg>
