<svg width="14" height="15" viewBox="0 0 14 15" fill="none" xmlns="http://www.w3.org/2000/svg">
<path d="M9.87239 10.7201V11.8142C9.87172 12.3942 9.64096 12.9503 9.23074 13.3604C8.82053 13.7705 8.26437 14.0011 7.68433 14.0016H2.18807C1.60802 14.0011 1.05187 13.7705 0.641653 13.3604C0.231439 12.9503 0.000674056 12.3942 0 11.8142V2.18807C0.000505583 1.60791 0.231196 1.05166 0.641428 0.641428C1.05166 0.231196 1.60791 0.000505583 2.18807 0L7.68496 0C8.26512 0.000505583 8.82137 0.231196 9.2316 0.641428C9.64184 1.05166 9.87253 1.60791 9.87303 2.18807V3.28146C9.87303 3.42654 9.8154 3.56568 9.71281 3.66826C9.61023 3.77085 9.47109 3.82848 9.32601 3.82848C9.18094 3.82848 9.0418 3.77085 8.93922 3.66826C8.83663 3.56568 8.779 3.42654 8.779 3.28146V2.18807C8.77866 1.89801 8.66329 1.61994 8.45819 1.41484C8.25309 1.20974 7.97502 1.09437 7.68496 1.09403H2.18807C1.89801 1.09437 1.61994 1.20974 1.41484 1.41484C1.20974 1.61994 1.09437 1.89801 1.09403 2.18807V11.8142C1.09437 12.1042 1.20974 12.3823 1.41484 12.5874C1.61994 12.7925 1.89801 12.9079 2.18807 12.9082H7.68496C7.97502 12.9079 8.25309 12.7925 8.45819 12.5874C8.66329 12.3823 8.77866 12.1042 8.779 11.8142V10.7201C8.779 10.575 8.83663 10.4359 8.93922 10.3333C9.0418 10.2307 9.18094 10.1731 9.32601 10.1731C9.47109 10.1731 9.61023 10.2307 9.71281 10.3333C9.8154 10.4359 9.87303 10.575 9.87303 10.7201H9.87239ZM13.6013 6.06142L12.3761 4.83691C12.3254 4.78614 12.2651 4.74586 12.1987 4.71839C12.1324 4.69091 12.0613 4.67676 11.9895 4.67676C11.9177 4.67676 11.8466 4.69091 11.7803 4.71839C11.7139 4.74586 11.6536 4.78614 11.6029 4.83691C11.5521 4.88769 11.5118 4.94796 11.4843 5.0143C11.4569 5.08064 11.4427 5.15174 11.4427 5.22355C11.4427 5.29535 11.4569 5.36645 11.4843 5.43279C11.5118 5.49913 11.5521 5.55941 11.6029 5.61018L12.4741 6.48146H5.90676C5.76168 6.48146 5.62255 6.5391 5.51996 6.64168C5.41738 6.74427 5.35975 6.8834 5.35975 7.02848C5.35975 7.17356 5.41738 7.31269 5.51996 7.41528C5.62255 7.51787 5.76168 7.5755 5.90676 7.5755H12.4741L11.6029 8.44678C11.5521 8.49755 11.5118 8.55783 11.4843 8.62417C11.4569 8.69051 11.4427 8.76161 11.4427 8.83341C11.4427 8.90522 11.4569 8.97632 11.4843 9.04266C11.5118 9.109 11.5521 9.16927 11.6029 9.22005C11.6536 9.27082 11.7139 9.3111 11.7803 9.33858C11.8466 9.36605 11.9177 9.3802 11.9895 9.3802C12.0613 9.3802 12.1324 9.36605 12.1987 9.33858C12.2651 9.3111 12.3254 9.27082 12.3761 9.22005L13.6006 7.99554C13.8569 7.73897 14.0009 7.39122 14.001 7.02861C14.0011 6.666 13.8573 6.31816 13.6013 6.06142Z" fill="#FF1F00"/>
</svg>
