<svg width="54" height="48" viewBox="0 0 54 48" fill="none" xmlns="http://www.w3.org/2000/svg">
<g clip-path="url(#clip0)" filter="url(#filter0_d)">
<path d="M28.4129 4.78836L41.7813 27.9431C41.9891 28.3029 41.9598 28.7528 41.7066 29.0834C41.4418 29.4255 41.0128 29.5545 40.6245 29.4509C40.5212 29.4227 30.5387 26.9311 23.8458 30.059L17.6131 19.2636C23.6794 15.0258 26.5015 5.1399 26.5287 5.03629C26.637 4.63419 26.9741 4.33507 27.388 4.28289C27.8006 4.22833 28.2052 4.42857 28.4129 4.78836Z" fill="#0F71BA"/>
<path d="M38.6594 14.309C39.4193 15.6253 39.3668 17.1906 38.659 18.4217L35.0975 12.2531C36.5176 12.2557 37.8994 12.9928 38.6594 14.309Z" fill="#0F71BA"/>
<path d="M28.0452 34.1992C28.0805 33.8727 27.9576 33.5493 27.7139 33.3282C27.0138 32.6912 26.4173 32.0531 25.9346 31.4302C25.2625 31.6578 24.6135 31.9282 24.0119 32.2701C24.3909 32.8034 24.8179 33.3393 25.3318 33.878L24.01 34.6411C23.4995 34.181 22.9846 33.6883 22.4911 33.1432L17.7181 35.8989C17.477 36.0381 17.2215 36.122 16.9729 36.2343C19.4595 39.5077 22.3143 41.7958 22.4622 41.9126C22.7931 42.1726 23.2482 42.2056 23.6126 41.9952L28.0655 39.4243C28.7576 39.0247 28.7476 38.0214 28.0508 37.6354C28.0285 37.623 27.0155 37.0367 25.6995 36.0406L27.5368 34.9798C27.8212 34.8156 28.0099 34.5258 28.0452 34.1992Z" fill="#0F71BA"/>
<path d="M16.6898 34.1178L22.0332 31.0328L15.8631 20.346L10.5197 23.431C7.57319 25.1322 6.56015 28.9129 8.26134 31.8594C9.96252 34.8059 13.7432 35.819 16.6898 34.1178Z" fill="#0F71BA"/>
</g>
<defs>
<filter id="filter0_d" x="0" y="0" width="59.9484" height="52.9484" filterUnits="userSpaceOnUse" color-interpolation-filters="sRGB">
<feFlood flood-opacity="0" result="BackgroundImageFix"/>
<feColorMatrix in="SourceAlpha" type="matrix" values="0 0 0 0 0 0 0 0 0 0 0 0 0 0 0 0 0 0 127 0"/>
<feOffset dx="11" dy="4"/>
<feGaussianBlur stdDeviation="0.5"/>
<feColorMatrix type="matrix" values="0 0 0 0 0.913725 0 0 0 0 0.968627 0 0 0 0 0.976471 0 0 0 1 0"/>
<feBlend mode="normal" in2="BackgroundImageFix" result="effect1_dropShadow"/>
<feBlend mode="normal" in="SourceGraphic" in2="effect1_dropShadow" result="shape"/>
</filter>
<clipPath id="clip0">
<rect width="35.1007" height="35.1007" fill="white" transform="translate(0 17.5504) rotate(-30)"/>
</clipPath>
</defs>
</svg>
