<svg width="40" height="40" viewBox="0 0 40 40" fill="none" xmlns="http://www.w3.org/2000/svg">
<g clip-path="url(#clip0)">
<path d="M36.0723 6.25604H3.92773C2.03768 6.25604 0.5 7.79372 0.5 9.68378V29.548C0.5 31.4381 2.03768 32.9758 3.92773 32.9758H36.0723C37.9623 32.9758 39.5 31.4381 39.5 29.548V9.68378C39.5 7.79372 37.9623 6.25604 36.0723 6.25604ZM35.6249 8.5412L35.1674 8.92213L21.36 20.4196C20.5719 21.0757 19.4279 21.0757 18.64 20.4196L4.83258 8.92213L4.37509 8.5412H35.6249ZM2.78516 10.1909L14.0351 19.5588L2.78516 27.0459V10.1909ZM36.0723 30.6906H3.92773C3.37564 30.6906 2.91389 30.2969 2.80808 29.7757L15.8674 21.0844L17.1778 22.1757C17.9955 22.8565 18.9978 23.1969 20.0001 23.1969C21.0023 23.1969 22.0046 22.8565 22.8223 22.1757L24.1328 21.0844L37.192 29.7756C37.0861 30.297 36.6244 30.6906 36.0723 30.6906ZM37.2148 27.0459L25.9649 19.5588L37.2148 10.1909V27.0459Z" fill="#0F71BA"/>
</g>
<defs>
<clipPath id="clip0">
<rect width="39" height="39" fill="white" transform="translate(0.5 0.115906)"/>
</clipPath>
</defs>
</svg>
