<svg width="29" height="39" viewBox="0 0 29 39" fill="none" xmlns="http://www.w3.org/2000/svg">
<g clip-path="url(#clip0)">
<path d="M14.2124 18.3768C19.2065 18.3768 23.2544 14.4377 23.2544 9.57971C23.2544 4.72119 19.2065 0.782585 14.2124 0.782585C9.21785 0.782585 5.16992 4.72119 5.16992 9.57971C5.17593 14.4356 9.22058 18.3705 14.2124 18.3768ZM14.2124 4.20274C17.2743 4.20274 19.7563 6.61738 19.7563 9.59673C19.7563 12.5755 17.2743 14.9907 14.2124 14.9907C11.15 14.9907 8.66799 12.5755 8.66799 9.59673C8.66854 6.61791 11.1505 4.20381 14.2124 4.20274Z" fill="#0F71BA"/>
<path d="M14.2123 21.6268C10.5125 21.6002 6.962 23.045 4.38272 25.6255C1.75916 28.2289 0.324951 31.7682 0.324951 35.6138C0.327684 36.5523 1.10874 37.3127 2.07399 37.3153H26.3501C27.3153 37.3127 28.0964 36.5523 28.0991 35.6138C28.0991 31.7682 26.6649 28.2289 24.0413 25.6255C21.4626 23.045 17.9115 21.6002 14.2123 21.6268ZM3.94546 33.9122C4.24443 31.6874 5.27582 29.6168 6.88384 28.0077C8.81925 26.1025 11.4587 25.03 14.2123 25.03C16.9654 25.03 19.6048 26.1025 21.5402 28.0077C23.145 29.6184 24.1752 31.6884 24.4786 33.9122H3.94546Z" fill="#0F71BA"/>
</g>
<defs>
<clipPath id="clip0">
<rect width="28" height="38" fill="white" transform="translate(0.0834961 0.115906)"/>
</clipPath>
</defs>
</svg>
