<svg width="77" height="15" viewBox="0 0 77 15" fill="none" xmlns="http://www.w3.org/2000/svg">
<path d="M0.826172 7.46082V7.44378C0.826172 3.4253 3.08458 0.902588 6.67904 0.902588C10.2646 0.902588 12.5144 3.4253 12.5144 7.44378V7.46112C12.5144 11.4882 10.2733 14.011 6.67904 14.011C3.076 14.0107 0.826172 11.4876 0.826172 7.46082ZM10.8972 7.46082V7.44378C10.8972 4.33079 9.26273 2.36207 6.67904 2.36207C4.08661 2.36207 2.44337 4.3222 2.44337 7.44378V7.46112C2.44337 10.5827 4.07788 12.5514 6.67904 12.5514C9.28953 12.5511 10.8972 10.5544 10.8972 7.46082Z" fill="#275179"/>
<path d="M14.3555 4.65592H15.9632L18.4854 12.1736H18.5208L21.0525 4.65592H22.6429L19.2857 13.7995H17.7201L14.3555 4.65592Z" fill="#275179"/>
<path d="M23.9365 9.2632V9.25446C23.9365 6.42365 25.553 4.47951 28.0493 4.47951C30.5457 4.47951 32.0651 6.33537 32.0651 9.07805V9.64093H25.483C25.4368 10.0196 25.4725 10.4037 25.5878 10.7673C25.7031 11.1309 25.8952 11.4655 26.1511 11.7482C26.407 12.031 26.7206 12.2554 27.0709 12.4062C27.4211 12.557 27.7996 12.6307 28.1808 12.6222C28.6507 12.6631 29.1213 12.553 29.5244 12.308C29.9274 12.0629 30.2418 11.6956 30.4219 11.2595L30.4479 11.1799H31.9508L31.9335 11.2688C31.7144 12.0898 31.2167 12.8089 30.5257 13.3029C29.8347 13.797 28.9934 14.0351 28.1461 13.9767C25.518 13.9761 23.9365 12.1374 23.9365 9.2632ZM25.5096 8.44585H30.5101C30.3604 6.66954 29.3759 5.83353 28.0406 5.83353C27.7021 5.83595 27.3675 5.90575 27.0563 6.03889C26.7451 6.17203 26.4634 6.36582 26.2279 6.60898C25.9923 6.85214 25.8074 7.13979 25.6841 7.45515C25.5608 7.77052 25.5015 8.1073 25.5096 8.44585Z" fill="#275179"/>
<path d="M34.5029 4.65594H36.032V6.20384H36.0667C36.1742 5.71823 36.443 5.28339 36.8292 4.97024C37.2155 4.6571 37.6964 4.48411 38.1935 4.47951C38.3998 4.48413 38.6055 4.50494 38.8086 4.54173V6.02727C38.5415 5.96149 38.2668 5.9316 37.9918 5.9384C37.7109 5.93389 37.4323 5.99026 37.1752 6.10364C36.9181 6.21703 36.6886 6.38476 36.5024 6.59528C36.3162 6.80581 36.1777 7.05415 36.0965 7.32327C36.0154 7.59239 35.9934 7.87592 36.032 8.15435V13.7988H34.5029V4.65594Z" fill="#275179"/>
<path d="M40.1562 4.65592H41.764L44.2862 12.1736H44.3217L46.8526 4.65592H48.4431L45.0859 13.7995H43.5209L40.1562 4.65592Z" fill="#275179"/>
<path d="M50.4414 2.15054C50.4413 1.96095 50.4973 1.77558 50.6025 1.61787C50.7077 1.46017 50.8572 1.33723 51.0323 1.26458C51.2073 1.19193 51.3999 1.17286 51.5858 1.20977C51.7717 1.24668 51.9424 1.33789 52.0765 1.47191C52.2105 1.60592 52.3018 1.77671 52.3388 1.96265C52.3758 2.14858 52.3568 2.34133 52.2843 2.51649C52.2118 2.69165 52.089 2.84135 51.9315 2.94667C51.7739 3.05199 51.5887 3.10819 51.3992 3.10816C51.2733 3.10854 51.1487 3.08403 51.0324 3.03604C50.916 2.98805 50.8103 2.91754 50.7213 2.82855C50.6323 2.73956 50.5618 2.63384 50.5137 2.51748C50.4657 2.40113 50.4411 2.27643 50.4414 2.15054ZM50.6339 4.65593H52.1636V13.7995H50.6343L50.6339 4.65593Z" fill="#275179"/>
<path d="M54.6982 9.2632V9.25446C54.6982 6.42365 56.3147 4.47951 58.8109 4.47951C61.3071 4.47951 62.8267 6.33537 62.8267 9.07805V9.64093H56.2445C56.1983 10.0196 56.2341 10.4037 56.3494 10.7673C56.4647 11.131 56.6568 11.4655 56.9127 11.7483C57.1686 12.0311 57.4823 12.2555 57.8325 12.4063C58.1828 12.5571 58.5613 12.6307 58.9425 12.6222C59.4124 12.6631 59.883 12.553 60.286 12.308C60.689 12.0629 61.0034 11.6956 61.1835 11.2595L61.2095 11.1799H62.7126L62.6951 11.2688C62.476 12.0898 61.9782 12.8089 61.2872 13.3029C60.5962 13.797 59.755 14.0351 58.9077 13.9767C56.2799 13.9761 54.6982 12.1374 54.6982 9.2632ZM56.2713 8.44585H61.2717C61.122 6.66954 60.1374 5.83353 58.8021 5.83353C58.4637 5.83597 58.1291 5.90579 57.8179 6.03893C57.5067 6.17208 57.2251 6.36589 56.9895 6.60905C56.754 6.8522 56.5691 7.13984 56.4458 7.4552C56.3225 7.77056 56.2632 8.10731 56.2713 8.44585Z" fill="#275179"/>
<path d="M64.5176 4.65592H66.0378L67.8661 12.094H67.9015L69.9663 4.65592H71.4431L73.5159 12.094H73.5512L75.3796 4.65592H76.8897L74.3414 13.7995H72.787L70.7224 6.72166H70.687L68.6313 13.7995H67.0752L64.5176 4.65592Z" fill="#275179"/>
</svg>
