<svg width="25" height="24" viewBox="0 0 25 24" fill="none" xmlns="http://www.w3.org/2000/svg">
<g clip-path="url(#clip0)">
<path d="M22.0493 2.51439C19.4189 -0.0593263 15.2138 -0.0587664 12.584 2.51567L1.55466 13.5451C-0.439668 15.5864 -0.401554 18.858 1.6398 20.8523C3.64756 22.8139 6.8541 22.8139 8.86186 20.8523L18.8491 10.865C20.1475 9.56666 20.1475 7.46155 18.8491 6.16319C17.5508 4.86483 15.4457 4.86483 14.1473 6.16319L4.59425 15.7162C4.26104 16.0612 4.27061 16.611 4.61562 16.9442C4.95218 17.2692 5.48572 17.2692 5.82228 16.9442L15.3753 7.39117C16.0088 6.7843 17.0143 6.80593 17.6211 7.43941C18.2096 8.05376 18.2096 9.02268 17.6211 9.63703L7.63388 19.6243C6.28468 20.9543 4.11271 20.9387 2.7827 19.5895C1.46612 18.2539 1.46612 16.1086 2.7827 14.7731L13.8121 3.74365C15.7767 1.77833 18.9625 1.77777 20.9278 3.74233C22.8931 5.70689 22.8937 8.89272 20.9291 10.858L9.89969 21.8875C9.53539 22.1995 9.49296 22.7477 9.80494 23.112C10.1169 23.4763 10.6652 23.5187 11.0295 23.2067C11.0635 23.1776 11.0951 23.146 11.1242 23.112L22.1536 12.0826C24.767 9.41161 24.7203 5.12775 22.0493 2.51439Z" fill="#0F71BA"/>
</g>
<defs>
<clipPath id="clip0">
<rect width="24" height="24" fill="white" transform="translate(0.0834961)"/>
</clipPath>
</defs>
</svg>
