<svg width="40" height="39" viewBox="0 0 40 39" fill="none" xmlns="http://www.w3.org/2000/svg">
<g clip-path="url(#clip0)">
<path d="M28.0428 39C26.7839 39 25.5357 38.7774 24.3151 38.334C18.9377 36.3806 13.9464 33.199 9.88046 29.1332C5.81458 25.0674 2.63301 20.076 0.679658 14.6986C0.0519515 12.9705 -0.133291 11.1866 0.129263 9.39633C0.375212 7.7194 1.02478 6.09144 2.00781 4.68842C2.99519 3.27922 4.31154 2.10713 5.8145 1.29891C7.41724 0.437056 9.16661 0 11.0142 0C11.5888 0 12.0854 0.401486 12.2058 0.963306L14.1187 9.89021C14.2053 10.2944 14.0811 10.715 13.7888 11.0074L10.5202 14.2759C13.6037 20.4064 18.607 25.4098 24.7376 28.4933L28.0061 25.2247C28.2985 24.9324 28.7191 24.8083 29.1233 24.8948L38.0502 26.8077C38.6121 26.9281 39.0135 27.4247 39.0135 27.9993C39.0135 29.8469 38.5764 31.5963 37.7145 33.1991C36.9063 34.702 35.7342 36.0184 34.325 37.0057C32.9221 37.9888 31.2941 38.6384 29.6171 38.8843C29.0916 38.9615 28.5662 38.9999 28.0428 39ZM10.0404 2.49072C7.6034 2.75975 5.44036 4.0371 4.00397 6.08718C2.38873 8.39243 2.01208 11.2278 2.97059 13.8664C6.72601 24.2045 14.8091 32.2876 25.1472 36.0431C27.7858 37.0016 30.6211 36.625 32.9265 35.0097C34.9766 33.5733 36.2539 31.4102 36.5229 28.9732L29.2609 27.4171L25.8473 30.8307C25.4841 31.1939 24.9322 31.2904 24.4674 31.072C17.2169 27.6657 11.3479 21.7968 7.94166 14.5463C7.72329 14.0814 7.81972 13.5295 8.18297 13.1663L11.5965 9.75272L10.0404 2.49072Z" fill="#0F71BA"/>
</g>
<defs>
<clipPath id="clip0">
<rect width="39" height="39" fill="white" transform="translate(0.0131836)"/>
</clipPath>
</defs>
</svg>
