<svg width="460" height="351" viewBox="0 0 460 351" fill="none" xmlns="http://www.w3.org/2000/svg">
<g opacity="0.05" clip-path="url(#clip0)">
<path d="M438.348 276.991C454.425 281.298 464.005 297.89 459.697 313.968C455.387 330.051 438.793 339.633 422.717 335.325C406.625 331.014 397.052 314.421 401.361 298.337C405.67 282.259 422.256 272.679 438.348 276.991ZM425.109 326.398C436.27 329.388 447.788 322.75 450.781 311.578C453.773 300.412 447.126 288.898 435.959 285.906C424.789 282.913 413.268 289.559 410.276 300.725C407.283 311.897 413.94 323.405 425.109 326.398ZM29.4177 116.143L34.3159 97.863L74.0814 22.4385C75.5723 16.8743 83.6487 19.0383 86.724 19.8624L183.112 45.6893C186.183 46.5124 188.527 47.7658 187.192 52.7464L148 199.012C144.096 213.584 140.926 215.415 137.854 214.591L118.192 209.323C115.662 194.094 104.514 180.964 88.6514 176.714C72.7993 172.466 56.5957 178.273 46.7802 190.188L17.6481 182.382C14.5701 181.558 12.7396 178.387 13.5636 175.312L21.0984 147.192L26.3396 148.596L34.6589 117.548L29.4177 116.143ZM122.758 121.443L143.835 127.091L144.981 122.811L123.905 117.163L122.758 121.443ZM151.037 117.106L167.057 57.3171L86.5674 35.7499L61.3463 93.0731L151.037 117.106ZM35.7421 173.297L50.683 177.301C57.0597 170.384 67.8019 167.097 67.8019 167.097L39.4399 159.497L35.7421 173.297ZM470.299 269.22L165.407 187.524L156.048 222.45L317.632 265.746C327.145 252.16 344.481 245.263 361.397 249.796C378.317 254.329 389.872 268.967 391.319 285.49L394.93 286.458C404.443 272.872 421.766 265.972 438.685 270.505C455.353 274.971 466.812 289.253 468.535 305.463C476.048 305.325 482.874 300.272 484.919 292.644L485.316 291.16C486.329 287.38 485.949 283.599 484.595 280.236L488.249 266.598L525.781 127.162L209.499 42.4144L172.442 181.987L472.154 262.294L470.299 269.22ZM88.3157 183.2C104.398 187.509 113.98 204.101 109.672 220.179C105.362 236.263 88.7681 245.844 72.6849 241.535C56.6017 237.225 47.0229 220.631 51.3326 204.547C55.6409 188.469 72.2316 178.89 88.3157 183.2ZM75.0771 232.607C86.2431 235.599 97.7555 228.959 100.749 217.787C103.741 206.621 97.1026 195.11 85.9269 192.115C74.7555 189.122 63.2383 195.769 60.2464 206.935C57.2521 218.106 63.9138 229.616 75.0771 232.607ZM361.06 256.281C377.141 260.59 386.723 277.182 382.415 293.261C378.106 309.344 361.51 318.925 345.429 314.616C329.342 310.306 319.768 293.713 324.078 277.629C328.386 261.55 344.972 251.971 361.06 256.281ZM347.821 305.688C358.982 308.679 370.504 302.042 373.497 290.87C376.489 279.704 369.837 268.188 358.671 265.197C347.506 262.205 335.985 268.851 332.993 280.017C329.999 291.188 336.656 302.697 347.821 305.688Z" fill="#0F71BA"/>
</g>
<defs>
<clipPath id="clip0">
<rect width="485.662" height="232.575" fill="white" transform="matrix(-0.965926 -0.258819 -0.258819 0.965926 529.651 125.698)"/>
</clipPath>
</defs>
</svg>
