<svg width="29" height="34" viewBox="0 0 29 34" fill="none" xmlns="http://www.w3.org/2000/svg">
<path d="M26.7441 27.0007V21.9067C26.7441 20.8122 25.8568 19.9248 24.7623 19.9248H24.2442V1.32773C24.2442 1.16137 24.1607 1.00613 24.022 0.914426L22.764 0.0829531C22.4346 -0.134739 21.9954 0.101413 21.9954 0.49626V6.469L21.6206 5.45778C21.1164 4.09776 19.8192 3.19515 18.3687 3.19515H9.70762C8.2486 3.19515 6.94563 4.10823 6.44769 5.47964L6.08847 6.469V0.49626C6.08847 0.101467 5.64925 -0.134739 5.31983 0.0829531L4.06182 0.914372C3.92305 1.00608 3.83954 1.16132 3.83954 1.32768V19.9248H3.32152C2.22701 19.9248 1.33973 20.8121 1.33973 21.9067V27.0007H0.495407C0.221794 27.0007 0 27.2225 0 27.4961V30.2351C0 30.5087 0.221794 30.7306 0.495407 30.7306H2.63282V32.0434C2.63282 32.5907 3.07646 33.0343 3.62374 33.0343H6.24948C6.79676 33.0343 7.24041 32.5907 7.24041 32.0434V30.7306H20.8435V32.0434C20.8435 32.5907 21.2872 33.0343 21.8344 33.0343H24.4602C25.0075 33.0343 25.4511 32.5907 25.4511 32.0434V30.7306H27.5885C27.8622 30.7306 28.084 30.5087 28.084 30.2351V27.4962C28.084 27.2225 27.8622 27.0007 27.5885 27.0007L26.7441 27.0007ZM6.74489 9.22883H21.3389V14.1106H6.74489V9.22883ZM6.40553 25.6142H4.71295C4.19579 25.6142 3.77655 25.1949 3.77655 24.6777V24.6541C3.77655 24.1369 4.19579 23.7177 4.71295 23.7177H6.40548C6.92264 23.7177 7.34188 24.1369 7.34188 24.6541V24.6777C7.34194 25.1949 6.92269 25.6142 6.40553 25.6142ZM17.41 25.8903H10.6738C10.1265 25.8903 9.6829 25.4466 9.6829 24.8994V18.621C9.6829 18.0738 10.1265 17.6301 10.6738 17.6301H17.41C17.9572 17.6301 18.4009 18.0738 18.4009 18.621V24.8994C18.4009 25.4466 17.9572 25.8903 17.41 25.8903ZM23.3708 25.6142H21.6783C21.1612 25.6142 20.7419 25.1949 20.7419 24.6777V24.6541C20.7419 24.1369 21.1612 23.7177 21.6783 23.7177H23.3708C23.888 23.7177 24.3073 24.1369 24.3073 24.6541V24.6777C24.3073 25.1949 23.888 25.6142 23.3708 25.6142ZM17.2594 21.2565H10.8086C10.5377 21.2565 10.3181 21.0369 10.3181 20.7659V20.756C10.3181 20.4851 10.5377 20.2655 10.8086 20.2655H17.2594C17.5303 20.2655 17.7499 20.4851 17.7499 20.756V20.7659C17.7499 21.0369 17.5303 21.2565 17.2594 21.2565ZM17.2594 19.2746H10.8086C10.5377 19.2746 10.3181 19.055 10.3181 18.7841V18.7742C10.3181 18.5033 10.5377 18.2838 10.8086 18.2838H17.2594C17.5303 18.2838 17.7499 18.5033 17.7499 18.7742V18.7841C17.7499 19.055 17.5303 19.2746 17.2594 19.2746ZM17.2594 25.2201H10.8086C10.5377 25.2201 10.3181 25.0005 10.3181 24.7296V24.7197C10.3181 24.4488 10.5377 24.2292 10.8086 24.2292H17.2594C17.5303 24.2292 17.7499 24.4488 17.7499 24.7197V24.7296C17.7499 25.0005 17.5303 25.2201 17.2594 25.2201ZM17.2594 23.2383H10.8086C10.5377 23.2383 10.3181 23.0187 10.3181 22.7478V22.7379C10.3181 22.467 10.5377 22.2474 10.8086 22.2474H17.2594C17.5303 22.2474 17.7499 22.467 17.7499 22.7379V22.7478C17.7499 23.0187 17.5303 23.2383 17.2594 23.2383Z" fill="#150E56"/>
</svg>
