<svg width="136" height="136" viewBox="0 0 136 136" fill="none" xmlns="http://www.w3.org/2000/svg">
<g opacity="0.05" clip-path="url(#clip0)">
<path d="M120.18 111.055V90.103C120.18 85.6013 116.53 81.9516 112.029 81.9516H109.898V5.46102C109.898 4.77678 109.554 4.13827 108.984 3.76107L103.81 0.341191C102.455 -0.554185 100.649 0.417119 100.649 2.04114V26.6072L99.1067 22.4481C97.0331 16.8542 91.6974 13.1418 85.7315 13.1418H50.1083C44.1073 13.1418 38.7482 16.8973 36.7001 22.538L35.2226 26.6072V2.04114C35.2226 0.417341 33.4161 -0.554185 32.0612 0.341191L26.887 3.76085C26.3162 4.13805 25.9727 4.77655 25.9727 5.4608V81.9516H23.8421C19.3403 81.9516 15.6909 85.601 15.6909 90.103V111.055H12.2182C11.0928 111.055 10.1805 111.967 10.1805 113.093V124.358C10.1805 125.484 11.0928 126.396 12.2182 126.396H21.0094V131.796C21.0094 134.047 22.8341 135.871 25.0851 135.871H35.8849C38.1359 135.871 39.9606 134.047 39.9606 131.796V126.396H95.9108V131.796C95.9108 134.047 97.7357 135.871 99.9863 135.871H110.786C113.037 135.871 114.862 134.047 114.862 131.796V126.396H123.653C124.779 126.396 125.691 125.484 125.691 124.358V113.093C125.691 111.967 124.779 111.055 123.653 111.055L120.18 111.055ZM37.9225 37.9585H97.9484V58.0373H37.9225V37.9585ZM36.5267 105.352H29.5651C27.438 105.352 25.7136 103.628 25.7136 101.5V101.403C25.7136 99.2761 27.438 97.5517 29.5651 97.5517H36.5265C38.6536 97.5517 40.378 99.2761 40.378 101.403V101.5C40.3782 103.628 38.6538 105.352 36.5267 105.352ZM81.7886 106.488H54.0824C51.8314 106.488 50.0067 104.663 50.0067 102.412V76.5889C50.0067 74.3381 51.8314 72.5134 54.0824 72.5134H81.7886C84.0394 72.5134 85.8641 74.3384 85.8641 76.5889V102.412C85.8643 104.663 84.0394 106.488 81.7886 106.488ZM106.306 105.352H99.3442C97.2173 105.352 95.4927 103.628 95.4927 101.5V101.403C95.4927 99.2761 97.2173 97.5517 99.3442 97.5517H106.306C108.433 97.5517 110.157 99.2761 110.157 101.403V101.5C110.157 103.628 108.433 105.352 106.306 105.352ZM81.169 87.4286H54.6367C53.5224 87.4286 52.6193 86.5255 52.6193 85.411V85.3701C52.6193 84.2559 53.5224 83.3529 54.6367 83.3529H81.169C82.2832 83.3529 83.1864 84.2559 83.1864 85.3701V85.411C83.1864 86.5255 82.2832 87.4286 81.169 87.4286ZM81.169 79.2772H54.6367C53.5224 79.2772 52.6193 78.3741 52.6193 77.2598V77.219C52.6193 76.1049 53.5224 75.2018 54.6367 75.2018H81.169C82.2832 75.2018 83.1864 76.1049 83.1864 77.219V77.2598C83.1864 78.3741 82.2832 79.2772 81.169 79.2772ZM81.169 103.731H54.6367C53.5224 103.731 52.6193 102.828 52.6193 101.714V101.673C52.6193 100.559 53.5224 99.6555 54.6367 99.6555H81.169C82.2832 99.6555 83.1864 100.559 83.1864 101.673V101.714C83.1864 102.828 82.2832 103.731 81.169 103.731ZM81.169 95.5798H54.6367C53.5224 95.5798 52.6193 94.6767 52.6193 93.5626V93.5218C52.6193 92.4075 53.5224 91.5043 54.6367 91.5043H81.169C82.2832 91.5043 83.1864 92.4075 83.1864 93.5218V93.5626C83.1864 94.6767 82.2832 95.5798 81.169 95.5798Z" fill="#150E56"/>
</g>
<defs>
<clipPath id="clip0">
<rect width="135.872" height="135.872" fill="white"/>
</clipPath>
</defs>
</svg>
