<svg width="70" height="71" viewBox="0 0 70 71" fill="none" xmlns="http://www.w3.org/2000/svg">
<rect x="0.34082" y="0.62011" width="69.6201" height="69.6201" rx="10" fill="white"/>
<g clip-path="url(#clip0)">
<path d="M48.1039 46.1208V40.9262C48.1039 39.81 47.199 38.9052 46.0829 38.9052H45.5546V19.9406C45.5546 19.7709 45.4694 19.6126 45.328 19.5191L44.0452 18.6712C43.7092 18.4492 43.2614 18.69 43.2614 19.0927V25.1834L42.8791 24.1522C42.365 22.7653 41.0421 21.8449 39.563 21.8449H30.7308C29.2429 21.8449 27.9142 22.776 27.4064 24.1745L27.0401 25.1834V19.0927C27.0401 18.6901 26.5922 18.4492 26.2563 18.6712L24.9734 19.519C24.8319 19.6126 24.7467 19.7709 24.7467 19.9405V38.9052H24.2185C23.1023 38.9052 22.1975 39.81 22.1975 40.9262V46.1208H21.3365C21.0575 46.1208 20.8313 46.347 20.8313 46.6261V49.4192C20.8313 49.6982 21.0575 49.9244 21.3365 49.9244H23.5161V51.2632C23.5161 51.8213 23.9686 52.2737 24.5266 52.2737H27.2043C27.7624 52.2737 28.2148 51.8213 28.2148 51.2632V49.9244H42.0867V51.2632C42.0867 51.8213 42.5392 52.2737 43.0972 52.2737H45.7749C46.333 52.2737 46.7853 51.8213 46.7853 51.2632V49.9244H48.965C49.244 49.9244 49.4702 49.6982 49.4702 49.4192V46.6261C49.4702 46.3471 49.244 46.1209 48.965 46.1209L48.1039 46.1208ZM27.7095 27.9978H42.5919V32.976H27.7095V27.9978ZM27.3634 44.707H25.6374C25.11 44.707 24.6825 44.2794 24.6825 43.752V43.7279C24.6825 43.2005 25.11 42.773 25.6374 42.773H27.3634C27.8907 42.773 28.3183 43.2005 28.3183 43.7279V43.752C28.3183 44.2794 27.8908 44.707 27.3634 44.707ZM38.5854 44.9885H31.716C31.158 44.9885 30.7055 44.536 30.7055 43.9781V37.5756C30.7055 37.0175 31.158 36.5651 31.716 36.5651H38.5854C39.1434 36.5651 39.5958 37.0176 39.5958 37.5756V43.978C39.5959 44.536 39.1434 44.9885 38.5854 44.9885ZM44.664 44.707H42.938C42.4107 44.707 41.9831 44.2794 41.9831 43.752V43.7279C41.9831 43.2005 42.4107 42.773 42.938 42.773H44.664C45.1913 42.773 45.6189 43.2005 45.6189 43.7279V43.752C45.6189 44.2794 45.1913 44.707 44.664 44.707ZM38.4317 40.2631H31.8535C31.5772 40.2631 31.3533 40.0392 31.3533 39.7629V39.7527C31.3533 39.4765 31.5772 39.2526 31.8535 39.2526H38.4317C38.708 39.2526 38.9319 39.4765 38.9319 39.7527V39.7629C38.9319 40.0392 38.708 40.2631 38.4317 40.2631ZM38.4317 38.2421H31.8535C31.5772 38.2421 31.3533 38.0182 31.3533 37.7419V37.7318C31.3533 37.4556 31.5772 37.2317 31.8535 37.2317H38.4317C38.708 37.2317 38.9319 37.4556 38.9319 37.7318V37.7419C38.9319 38.0182 38.708 38.2421 38.4317 38.2421ZM38.4317 44.3051H31.8535C31.5772 44.3051 31.3533 44.0812 31.3533 43.8049V43.7948C31.3533 43.5185 31.5772 43.2946 31.8535 43.2946H38.4317C38.708 43.2946 38.9319 43.5185 38.9319 43.7948V43.8049C38.9319 44.0812 38.708 44.3051 38.4317 44.3051ZM38.4317 42.2841H31.8535C31.5772 42.2841 31.3533 42.0601 31.3533 41.7839V41.7738C31.3533 41.4975 31.5772 41.2736 31.8535 41.2736H38.4317C38.708 41.2736 38.9319 41.4975 38.9319 41.7738V41.7839C38.9319 42.0601 38.708 42.2841 38.4317 42.2841Z" fill="#150E56"/>
</g>
<defs>
<clipPath id="clip0">
<rect width="33.6871" height="33.6871" fill="white" transform="translate(18.3073 18.5866)"/>
</clipPath>
</defs>
</svg>
